<?xml version="1.0" encoding="utf-8"?>
<!-- Generator: Adobe Illustrator 19.0.0, SVG Export Plug-In . SVG Version: 6.00 Build 0)  -->
<svg version="1.1" id="图层_1" xmlns="http://www.w3.org/2000/svg" xmlns:xlink="http://www.w3.org/1999/xlink" x="0px" y="0px"
	 viewBox="-245 368.9 104 104" style="enable-background:new -245 368.9 104 104;" xml:space="preserve">
<style type="text/css">
	.st0{fill:none;stroke:#000000;stroke-miterlimit:10;}
	.st1{fill:none;stroke:#E60012;stroke-miterlimit:10;}
	.st2{fill:#9DD09F;fill-opacity:0;}
	.st3{fill:#178D52;}
	.st4{opacity:0.5;fill:none;stroke:#005733;stroke-miterlimit:10;enable-background:new    ;}
</style>
<path id="XMLID_31_" class="st0" d="M-387.3,1035.8"/>
<path id="XMLID_24_" class="st0" d="M-380.5,1019.6"/>
<path id="XMLID_32_" class="st0" d="M-380.5,1029.1"/>
<g id="XMLID_16_">
	<g id="XMLID_81_">
		<path id="XMLID_82_" class="st1" d="M-338.4,1006.1"/>
	</g>
</g>
<g>
	<circle id="XMLID_23_" class="st2" cx="-492" cy="839.8" r="50"/>
	<path id="XMLID_17_" class="st3" d="M-492,793.7c-1.1,1.1-13.4,13.4-13.4,13.4h-2.8v2.8l2.8,2.8v4l-2.8-0.1v13.5h2.8l6.8,6.8v2.8
		l13.6,0.1v2.8l6.8,6.8h2.8v13.5l-2.8-0.1v4l2.8,2.8v2.8h-2.8l-13.7,13.4l-19.1,0.1c-25.5-10.5-37.7-39.8-27.1-65.3
		c10.6-25.6,40-37.7,65.5-27L-492,793.7"/>
	<path id="XMLID_38_" class="st4" d="M-492,793.7c-1.1,1.1-13.4,13.4-13.4,13.4h-2.8v2.8l2.8,2.8v4l-2.8-0.1v13.5h2.8l6.8,6.8v2.8
		l13.6,0.1v2.8l6.8,6.8h2.8v13.5l-2.8-0.1v4l2.8,2.8v2.8h-2.8l-13.7,13.4l-19.1,0.1c-25.5-10.5-37.7-39.8-27.1-65.3
		c10.6-25.6,40-37.7,65.5-27L-492,793.7"/>
</g>
</svg>
