<?xml version="1.0" encoding="utf-8"?>
<!-- Generator: Adobe Illustrator 19.0.0, SVG Export Plug-In . SVG Version: 6.00 Build 0)  -->
<svg version="1.1" id="图层_1" xmlns="http://www.w3.org/2000/svg" xmlns:xlink="http://www.w3.org/1999/xlink" x="0px" y="0px"
	 viewBox="-245 368.9 104 104" style="enable-background:new -245 368.9 104 104;" xml:space="preserve">
<style type="text/css">
	.st0{fill:none;stroke:#000000;stroke-miterlimit:10;}
	.st1{fill:#178D52;fill-opacity:0;}
	.st2{fill:none;stroke:#64C0AF;stroke-miterlimit:10;}
	.st3{fill:#9DD09F;}
	.st4{opacity:0.5;fill:none;stroke:#C2E2D2;stroke-miterlimit:10;enable-background:new    ;}
</style>
<path id="XMLID_22_" class="st0" d="M-495,800.1"/>
<g>
	<circle id="XMLID_34_" class="st1" cx="-492" cy="839.8" r="50"/>
	<path id="XMLID_25_" class="st2" d="M-516.4,857.2"/>
	<path id="XMLID_63_" class="st3" d="M-492,885.9c1.1-1.1,13.4-13.4,13.4-13.4h2.8v-2.8l-2.8-2.9v-4l2.8,0.1v-13.5h-2.8l-6.8-6.8
		v-2.8l-13.6-0.1v-2.8l-6.8-6.8h-2.8v-13.5l2.8,0.1v-4l-2.8-2.8v-2.8h2.8l13.7-13.4l19.1-0.1c25.5,10.6,37.6,39.8,27.1,65.3
		c-10.6,25.6-39.9,37.7-65.5,27L-492,885.9"/>
	<path id="XMLID_19_" class="st4" d="M-492,885.9c1.1-1.1,13.4-13.4,13.4-13.4h2.8v-2.8l-2.8-2.9v-4l2.8,0.1v-13.5h-2.8l-6.8-6.8
		v-2.8l-13.6-0.1v-2.8l-6.8-6.8h-2.8v-13.5l2.8,0.1v-4l-2.8-2.8v-2.8h2.8l13.7-13.4l19.1-0.1c25.5,10.6,37.6,39.8,27.1,65.3
		c-10.6,25.6-39.9,37.7-65.5,27L-492,885.9"/>
</g>
</svg>
