<?xml version="1.0" encoding="utf-8"?>
<!-- Generator: Adobe Illustrator 19.0.0, SVG Export Plug-In . SVG Version: 6.00 Build 0)  -->
<svg version="1.1" id="图层_1" xmlns="http://www.w3.org/2000/svg" xmlns:xlink="http://www.w3.org/1999/xlink" x="0px" y="0px"
	 viewBox="-299 418.9 104 104" style="enable-background:new -299 418.9 104 104;" xml:space="preserve">
<style type="text/css">
	.st0{fill:#178D52;fill-opacity:0;}
	.st1{fill:none;stroke:#64C0AF;stroke-miterlimit:10;}
	.st2{fill:none;stroke:#000000;stroke-miterlimit:10;}
	.st3{fill:#9DD09F;}
	.st4{fill:none;stroke:#C2E2D2;stroke-miterlimit:10;}
	.st5{fill:#178D52;stroke:#005733;stroke-miterlimit:10;}
	.st6{opacity:0.5;fill:none;stroke:#C2E2D2;stroke-miterlimit:10;enable-background:new    ;}
</style>
<g id="XMLID_41_">
	<circle id="XMLID_34_" class="st0" cx="-247" cy="470.9" r="50"/>
	<path id="XMLID_25_" class="st1" d="M-271.4,488.3"/>
	<g id="XMLID_21_">
		<path id="XMLID_22_" class="st2" d="M-250,431.2"/>
		<path id="XMLID_63_" class="st3" d="M-247,517c1.1-1.1,13.4-13.4,13.4-13.4h2.8v-2.8l-2.8-2.9v-4l2.8,0.1v-13.5h-2.8l-6.8-6.8
			v-2.8l-13.6-0.1V468l-6.8-6.8h-2.8v-13.5l2.8,0.1v-4l-2.8-2.8v-2.8h2.8l13.7-13.4l19.1-0.1c25.5,10.6,37.6,39.8,27.1,65.3
			c-10.6,25.6-39.9,37.7-65.5,27H-247"/>
		<g id="XMLID_35_">
			<path id="XMLID_62_" class="st4" d="M-212.5,482.3"/>
			<polyline id="XMLID_61_" class="st4" points="-207.7,477.6 -205.7,475.6 -205.7,466.1 -212.5,459.3 			"/>
			<polyline id="XMLID_60_" class="st4" points="-212.5,459.3 -210.4,457.4 -210.4,447.9 -217.2,441.1 -222,441.1 -222,431.6 
				-228.7,424.9 			"/>
			<polyline id="XMLID_59_" class="st4" points="-230.8,500.7 -221.2,500.7 -207.7,487.2 			"/>
			<polyline id="XMLID_58_" class="st4" points="-214.5,470.9 -214.5,480.5 -221.2,487.2 -230.8,487.1 			"/>
			<path id="XMLID_57_" class="st4" d="M-207.7,477.6l-13.5-13.4c0,0-9.2,0-9.6,0c0.2-0.2,2.8-2.5,2.8-2.5v-9.5h-5.5l-2.1-2.3"/>
			<path id="XMLID_56_" class="st4" d="M-240.2,454.6c0,0-0.1,8-0.1,8.4c0,0,4.6,4.6,5.5,5.4c-0.4,0.4-0.7,0.7-0.7,0.7l-2,1.9
				l6.7,6.7l6.7,0.1V471l-6.7-6.7"/>
			<polyline id="XMLID_55_" class="st4" points="-240.2,454.6 -247.1,447.9 -256.6,447.8 			"/>
			<polyline id="XMLID_52_" class="st4" points="-233.5,438.3 -240.3,431.6 -249.8,431.6 -256.6,438.3 -256.6,447.8 			"/>
			<line id="XMLID_49_" class="st4" x1="-233.5" y1="438.3" x2="-233.5" y2="447.9"/>
			<line id="XMLID_48_" class="st4" x1="-233.5" y1="447.9" x2="-240.2" y2="454.6"/>
			<polyline id="XMLID_47_" class="st4" points="-222,441.1 -226.7,441.1 -233.5,438.3 			"/>
			<polyline id="XMLID_46_" class="st4" points="-234.7,468.5 -244.3,468.5 -251,461.7 			"/>
			<polyline id="XMLID_45_" class="st4" points="-251,461.7 -251,454.6 -251.7,452.6 -256.6,447.8 			"/>
			<polyline id="XMLID_43_" class="st4" points="-260.6,447.8 -258.6,449.8 -256.6,447.8 			"/>
			<line id="XMLID_42_" class="st4" x1="-251" y1="461.7" x2="-255.9" y2="466.1"/>
			<polyline id="XMLID_37_" class="st4" points="-233.5,447.9 -228.7,447.9 -226.7,445.4 -219.2,452.7 -224,456.9 -222,459.3 
				-212.5,459.3 			"/>
			<path id="XMLID_36_" class="st4" d="M-207.7,477.6v19.2l-13.5,13.4h-9.6l-6.8,6.7c0,0-8.8,0-9.5,0"/>
		</g>
		<path id="XMLID_26_" class="st5" d="M-248.6,455.6c0,0-0.9-0.9-2.1-2.1c-2-2-4.6-4.6-4.6-4.6v-9.5l6.8-6.8h9.6l6.8,6.7
			c0,0,0.1,0.1,0.3,0.3c1.2,0,6.4,0,6.4,0l6.5,6.5v9.2l-6.5,6.5h-9.2l-5.4-5.3l-0.1-0.1c-0.4-0.2-1.7-0.8-1.7-0.8s-0.3,0-0.8,0
			C-244.4,455.6-248.6,455.6-248.6,455.6z M-237.5,447.6v6.1l4.3,4.3h6.1l4.3-4.3v-6.1l-4.3-4.3h-6.1L-237.5,447.6z"/>
		<path id="XMLID_19_" class="st6" d="M-247,517c1.1-1.1,13.4-13.4,13.4-13.4h2.8v-2.8l-2.8-2.9v-4l2.8,0.1v-13.5h-2.8l-6.8-6.8
			v-2.8l-13.6-0.1V468l-6.8-6.8h-2.8v-13.5l2.8,0.1v-4l-2.8-2.8v-2.8h2.8l13.7-13.4l19.1-0.1c25.5,10.6,37.6,39.8,27.1,65.3
			c-10.6,25.6-39.9,37.7-65.5,27H-247"/>
	</g>
</g>
</svg>
