<?xml version="1.0" encoding="utf-8"?>
<!-- Generator: Adobe Illustrator 19.0.0, SVG Export Plug-In . SVG Version: 6.00 Build 0)  -->
<svg version="1.1" id="图层_1" xmlns="http://www.w3.org/2000/svg" xmlns:xlink="http://www.w3.org/1999/xlink" x="0px" y="0px"
	 viewBox="-299 418.9 104 104" style="enable-background:new -299 418.9 104 104;" xml:space="preserve">
<style type="text/css">
	.st0{fill:none;stroke:#000000;stroke-miterlimit:10;}
	.st1{fill:none;stroke:#E60012;stroke-miterlimit:10;}
	.st2{fill:#9DD09F;fill-opacity:0;}
	.st3{fill:#178D52;}
	.st4{fill:none;stroke:#005733;stroke-miterlimit:10;}
	.st5{fill:#9DD09F;stroke:#C2E2D2;stroke-miterlimit:10;}
	.st6{opacity:0.5;fill:none;stroke:#005733;stroke-miterlimit:10;enable-background:new    ;}
</style>
<path id="XMLID_31_" class="st0" d="M-142.3,666.9"/>
<path id="XMLID_24_" class="st0" d="M-135.5,650.7"/>
<path id="XMLID_32_" class="st0" d="M-135.5,660.2"/>
<g id="XMLID_16_">
	<g id="XMLID_81_">
		<path id="XMLID_82_" class="st1" d="M-93.4,637.2"/>
	</g>
</g>
<g id="XMLID_64_">
	<circle id="XMLID_23_" class="st2" cx="-247" cy="470.9" r="50"/>
	<g id="XMLID_39_">
		<path id="XMLID_17_" class="st3" d="M-247,424.8c-1.1,1.1-13.4,13.4-13.4,13.4h-2.8v2.8l2.8,2.8v4l-2.8-0.1v13.5h2.8l6.8,6.8v2.8
			l13.6,0.1v2.8l6.8,6.8h2.8V494l-2.8-0.1v4l2.8,2.8v2.8h-2.8l-13.7,13.4L-266,517c-25.5-10.5-37.7-39.8-27.1-65.3
			c10.6-25.6,40-37.7,65.5-27L-247,424.8"/>
		<g id="XMLID_15_">
			<path id="XMLID_27_" class="st4" d="M-281.5,459.4"/>
			<polyline id="XMLID_33_" class="st4" points="-286.2,464.1 -288.2,466.2 -288.2,475.7 -281.5,482.5 			"/>
			<polyline id="XMLID_40_" class="st4" points="-281.5,482.5 -283.6,484.4 -283.5,493.9 -276.8,500.6 -272,500.6 -272,510.2 
				-265.3,516.9 			"/>
			<polyline id="XMLID_44_" class="st4" points="-263.2,441.1 -272.8,441.1 -286.3,454.6 			"/>
			<polyline id="XMLID_50_" class="st4" points="-279.5,470.9 -279.5,461.3 -272.8,454.6 -263.2,454.6 			"/>
			<path id="XMLID_51_" class="st4" d="M-286.2,464.1l13.5,13.4c0,0,9.2,0,9.6,0c-0.2,0.2-2.8,2.5-2.8,2.5v9.5h5.5l2.1,2.3"/>
			<path id="XMLID_53_" class="st4" d="M-253.7,487.2c0,0,0.1-8,0.1-8.4c0,0-4.6-4.6-5.5-5.4c0.4-0.4,0.7-0.7,0.7-0.7l2-1.9
				l-6.7-6.7l-6.7-0.1v6.8l6.7,6.7"/>
			<polyline id="XMLID_54_" class="st4" points="-253.7,487.2 -246.9,493.9 -237.4,493.9 			"/>
			<polyline id="XMLID_66_" class="st4" points="-260.5,503.5 -253.7,510.2 -244.2,510.2 -237.4,503.5 -237.4,493.9 			"/>
			<line id="XMLID_67_" class="st4" x1="-260.5" y1="503.5" x2="-260.5" y2="493.9"/>
			<line id="XMLID_68_" class="st4" x1="-260.5" y1="493.9" x2="-253.7" y2="487.2"/>
			<polyline id="XMLID_72_" class="st4" points="-272,500.6 -267.2,500.7 -260.5,503.5 			"/>
			<polyline id="XMLID_85_" class="st4" points="-259.2,473.3 -249.7,473.3 -242.9,480.1 			"/>
			<polyline id="XMLID_88_" class="st4" points="-242.9,480.1 -242.9,487.2 -242.2,489.1 -237.4,493.9 			"/>
			<polyline id="XMLID_92_" class="st4" points="-233.4,493.9 -235.4,491.9 -237.4,493.9 			"/>
			<line id="XMLID_93_" class="st4" x1="-242.9" y1="480.1" x2="-238.1" y2="475.7"/>
			<polyline id="XMLID_98_" class="st4" points="-260.5,493.9 -265.3,493.9 -267.2,496.3 -274.8,489.1 -269.9,484.8 -271.9,482.5 
				-281.5,482.5 			"/>
			<path id="XMLID_1_" class="st4" d="M-286.2,464.1v-19.2l13.5-13.4h9.6l6.8-6.7c0,0,8.8,0,9.5,0"/>
		</g>
		<path id="XMLID_18_" class="st5" d="M-245.4,486.2c0,0,0.9,0.9,2.1,2.1c2,2,4.6,4.6,4.6,4.6v9.5l-6.8,6.8h-9.6l-6.8-6.7
			c0,0-0.1-0.1-0.3-0.3c-1.2,0-6.4,0-6.4,0l-6.5-6.5v-9.2l6.5-6.5h9.2l5.2,5.2l0.1,0.1c0.4,0.2,1.7,0.8,1.7,0.8s0.3,0,0.8,0
			C-249.5,486.2-245.4,486.2-245.4,486.2z M-256.4,494.2v-6.1l-4.4-4.3h-6.1l-4.3,4.3v6.1l4.3,4.3h6.1L-256.4,494.2z"/>
		<path id="XMLID_38_" class="st6" d="M-247,424.8c-1.1,1.1-13.4,13.4-13.4,13.4h-2.8v2.8l2.8,2.8v4l-2.8-0.1v13.5h2.8l6.8,6.8v2.8
			l13.6,0.1v2.8l6.8,6.8h2.8V494l-2.8-0.1v4l2.8,2.8v2.8h-2.8l-13.7,13.4L-266,517c-25.5-10.5-37.7-39.8-27.1-65.3
			c10.6-25.6,40-37.7,65.5-27L-247,424.8"/>
	</g>
</g>
</svg>
